<svg xmlns="http://www.w3.org/2000/svg" height="24" viewBox="0 0 24 24" width="24" fill="url(#RadialGradient1)">
    <path d="M0 0h24v24H0z" fill="none"/>
    <path d="M15 11V5l-3-3-3 3v2H3v14h18V11h-6zm-8 8H5v-2h2v2zm0-4H5v-2h2v2zm0-4H5V9h2v2zm6 8h-2v-2h2v2zm0-4h-2v-2h2v2zm0-4h-2V9h2v2zm0-4h-2V5h2v2zm6 12h-2v-2h2v2zm0-4h-2v-2h2v2z"/>
      <defs>
      <radialGradient id="RadialGradient1">
        <stop offset="0%" stop-color="#bc9cff"/>
        <stop offset="100%" stop-color="#8ba4F9"/>
      </radialGradient>
  </defs>
</svg>